<svg version="1.1" id="Layer_1" xmlns="http://www.w3.org/2000/svg" x="0" y="0" viewBox="0 0 1000 1000" xml:space="preserve"><path fill="#953C8E" d="M1032.006 813.811c-12.962-1.023-26.112.518-39.18.602-15.521.111-31.031-.179-46.547-.189-2.049 0-4.096.668-6.145.885a34.127 34.127 0 0 1-4.764.189c-13.278-.328-26.557-.773-39.836-1.03-9.962-.188-19.912-.2-29.863-.206-29.862-.016-59.726-.061-89.589.084-13.15.066-26.296.685-39.446.79-15.054.122-30.119-.022-45.173-.116-7.886-.051-15.788-.552-23.657-.307-27.409.868-54.801.178-82.198.123-7.558-.012-15.115.556-22.673.901-5.493.25-5.985.25-6.361 5.242-1.11 14.403-9.527 24.063-20.257 32.278-4.909 3.756-9.939 7.385-15.115 10.763-6.183 4.029-13.17 5.51-20.497 5.487-12.767-.072-25.405-1.703-36.828-7.435-13.579-6.812-23.493-17.825-30.664-31.188-2.018-3.768-3.687-7.758-5.209-11.765-1.355-3.59-3.047-5.365-7.43-4.608-4.16.724-8.554.155-12.853.066-22.219-.468-44.45-1.558-66.663-1.229-13.797.2-27.451-1.53-41.23-1.241-13.877.317-27.765-.301-41.653-.423-10.515-.101-21.017.1-31.533-.111-16.96-.351-33.906-1.058-50.871-1.369-22.898-.412-45.797-.59-68.694-.901-7.881-.111-15.758-.268-23.633-.401-1.191-.027-2.61.323-3.528-.199-1.247-.713-2.61-1.965-2.944-3.239-.206-.802 1.172-2.516 2.221-3.011 1.441-.685 3.25-.83 4.903-.808 3.345.034 6.684.34 10.029.507 13.563.662 27.127 1.341 40.695 1.97 7.402.351 14.812.74 22.214.874 24.868.445 49.739.824 74.607 1.113 2.538.033 5.083-.657 8.498-1.146-1.511-3.206-2.24-6.021-3.898-8.081-5.037-6.211-6.08-13.735-7.728-21.114-1.806-8.114-3.84-16.173-5.677-24.275-2.421-10.674-1.647-21.393.615-31.911 1.962-9.061 4.316-18.153 7.683-26.758 7.107-18.143 17.77-33.959 35.008-43.932 9.881-5.721 20.539-8.014 32.345-4.285 10.167 3.206 19.161 7.568 25.088 16.507 8.542 12.855 6.814 26.802-6.214 36.58-7.243 5.437-14.867 10.223-20.338 17.853-7.07 9.867-8.445 20.72-6.553 32.095 1.85 11.147 5.84 21.571 12.44 31.021 4.336 6.217 7.141 13.49 13.14 18.565 7.819 6.612 15.867 11.799 27.03 10.853 10.463-.885 21.045-.245 31.583-.384 6.444-.084 7.173-.34 7.836-6.64.832-8.024 5.676-14.124 9.266-20.675 11.99-21.865 31.577-35.267 53.41-45.785 3.403-1.625 7.299-2.221 10.975-3.283 2.207-.635 4.408-1.258 7.188-2.048-6.242-13.519-18.733-19.835-27.439-30.643-2.947 1.909-6.052 3.062-7.911 5.271-9.647 11.537-19.033 23.302-28.375 35.1-1.453 1.826-2.16 4.241-3.242 6.367-1.233 2.415-2.774 4.402-5.933 4.313-1.842-2.899-.153-5.226.832-7.496.757-1.725 1.959-3.262 3.039-4.836 9.734-14.131 19.495-28.232 31.569-40.554 1.478-1.503 2.69-3.262 4.126-5.042-2.204-3.117-4.269-6.011-6.292-8.927-1.989-2.866-4.725-3.695-7.391-1.592-5.779 4.541-11.598 9.121-16.782 14.308-7.095 7.096-13 15.199-17.655 24.17-1.071 2.082-2.872 3.807-4.327 5.688-.467-.256-.927-.522-1.389-.778.332-1.27.323-2.783 1.049-3.74 4.46-5.954 7.708-12.532 10.805-19.278 4.591-9.939 12.349-17.452 20.382-24.643 1.767-1.563 3.545-3.116 5.938-5.22-2.997-4.542-5.412-9.188-8.787-12.983-2.672-3-6.531-1.208-9.197.65-4.675 3.283-9.45 6.718-13.209 10.953-5.204 5.843-9.536 12.477-14.191 18.805-1.344 1.819-1.745 4.669-5.54 4.329.25-1.597.031-3.456.832-4.597 3.393-4.825 7.057-9.467 10.697-14.119 1.739-2.231 3.876-4.168 5.398-6.517 4.269-6.539 10.788-10.591 16.515-15.521 4.338-3.723 4.975-5.209 1.864-9.806-5.949-8.81-6.019-18.889-7.374-28.705-1.569-11.331-2.952-22.668-4.274-34.016-.354-3.071-1.897-4.813-4.73-5.531-7.607-1.948-15.171-4.163-22.865-5.666-9.375-1.825-18.875-3.005-28.293-4.574-1.344-.233-2.577-1.124-3.938-1.747.354-7.168-.256-14.37 1.294-21.079 1.784-7.792 5.215-15.254 8.398-22.665 3.648-8.467 10.201-14.787 16.737-21.072 5.835-5.615 11.359-11.564 17.21-17.161 2.913-2.774 6.464-4.883 9.353-7.683 1.35-1.302 2.719-3.595 2.565-5.304-.782-8.663 2.927-16.368 4.633-24.487.632-3.017 1.873-5.899 2.535-8.916 2.752-12.577 10.51-22.497 18.362-31.899 14.172-16.982 29.969-32.545 48.039-45.465 7.541-5.385 15.866-9.684 23.919-14.345 5.766-3.328 11.665-6.434 17.505-9.619 1.261-.685 2.496-1.5 3.859-1.893 13.04-3.784 25.934-8.348 39.202-10.994 16.537-3.297 33.358-5.933 50.305-1.628 1.436.359 3.479-.832 4.947-1.767 1.38-.874 2.504-2.251 3.506-3.573 10.674-14.163 24.654-24.523 39.157-34.284 8.22-5.54 17.029-9.375 27.113-10.365 7.508-.734 14.927-2.463 22.317-3.734 4.892 4.986 5.476 11.055 6.333 16.846 1.747 11.768 3.351 23.583 4.469 35.423.484 5.176-.056 10.51-.679 15.702-.791 6.598-.773 7.043 5.398 9.67.873.37 1.719.901 2.638 1.093 15.983 3.415 28.61 12.489 40.03 23.638 8.192 8.003 16.384 16.009 24.621 23.958 9.466 9.141 17.541 19.478 24.426 30.598 8.353 13.506 15.866 27.548 23.668 41.397 1.146 2.045 1.881 4.318 2.967 6.831 1.753-.801 3.483-1.475 5.092-2.354 12.16-6.656 25.01-11.687 38.122-16 6.322-2.076 12.911-3.386 19.429-4.811 2.676-.593 5.348 1.658 5.486 4.327.129 2.518-1.129 4.079-3.745 4.302-2.37.206-4.875-.064-7.123.598-9.066 2.649-18.076 5.504-27.059 8.445-2.46.81-4.642 2.774-7.123 3.15-6.745 1.004-11.325 5.91-16.979 8.823-1.369.707-2.899 3.047-2.732 4.433.701 5.535 2.042 10.983 2.972 15.563 12.839-1.681 24.587-3.306 36.38-4.683 2.31-.273 4.914-.058 7.018.81 1.402.576 2.677 2.61 2.972 4.182.14.785-1.948 2.693-3.206 2.888-3.5.554-7.101.56-10.656.615-10.335.167-20.23 2.304-29.803 5.882 1.553 7.625 3 14.687 4.43 21.679 33.904-2.26 60.205.643 95.622 10.588-1.903 3.03-3.712 5.891-5.933 9.408-28.07-11.582-56.987-14.116-87.602-10.989.94 6.77 1.002 12.831 2.743 18.349 3.606 11.353 7.034 22.996 12.61 33.414 4.381 8.191 11.543 15.037 18.065 21.927 6.717 7.091 14.47 13.201 21.192 20.302 11.002 11.626 21.009 28.511 26.707 43.453 3.635 9.539 7.675 18.934 10.842 28.628 3.846 11.787 6.36 23.819 7.112 36.396.796 13.468 3.361 26.841 5.382 40.226 1.368 9.071 4.652 17.965 1.603 27.17 7.769 2.693 83.983 2.125 113.013-.725"/><path fill="#953C8E" d="M265.396 712.969c2.638 9.316.426 14.837-8.156 18.555-3.984 1.725-6.959 3.729-8.15 8.158-1.252 4.67-5.437 6.533-9.413 8.059-1.859.701-4.235-.012-6.367.022-4.411.095-5.482 1.213-5.368 5.632.033 1.202.303 2.382.423 3.562 1.453 14.22 6.775 27.17 12.645 40.036 2.985 6.545 7.296 9.372 14.402 9.361 11.698-.028 23.399.567 35.097.757 7.166.111 14.333.033 21.496-.117 1.472-.033 2.93-.757 4.884-1.308-4.842-6.723-9.453-12.711-13.624-19-7.438-11.175-12.702-23.285-15.833-36.436-3.801-15.938-.654-30.175 8.949-43.214.832-1.136 1.502-2.394 2.632-4.207-1.978-1.18-3.734-2.249-5.512-3.295-7.207-4.285-14.4-8.715-18.538-16.361-3.024-5.577-6.035-11.304-7.956-17.319-1.642-5.137-2.012-5.966-7.118-3.712-1.508.662-3.23 1.353-4.252 2.543-6.158 7.246-11.59 14.987-16.081 24.571 2.816.689 4.987 1.263 7.168 1.764 11.501 2.638 19.737 9.154 18.786 22.149-1.5-2.137-3.055-4.229-4.474-6.417-5.095-7.83-12.73-9.494-21.234-8.397-1.761.233-3.954 1.992-4.792 3.64-5.181 10.14-6.912 21.176-7.313 32.4-.061 1.715 1.544 3.951 3.022 5.154 3.297 2.682 8.854 2.025 11.795-.88 3.139-3.122 3.014-6.238-.479-10.763-.434-.568-1.065-.963-1.527-1.503-2.24-2.544-1.979-4.964.409-7.803 1.335 1.157 2.379 2.026 3.375 2.928 6.292 5.71 14.308 4.686 18.869-2.604 1.116-1.77 1.511-3.963 2.235-5.955zM557.687 807.232c122.251 3.768 244.72.757 367.656.985v-22.578c-7.235.601-13.863.155-19.846-3.356-3.467-2.042-6.812-4.324-10.329-6.305-7.391-4.152-12.744-10.352-15.221-18.188-2.41-7.636-1.775-15.315 4.402-21.811 3.795-4.001 8.358-5.381 13.417-5.76 8.22-.59 16.468-.912 25.438-1.386.368-6.64-.834-12.833-2.982-18.093-6.634 2.104-12.777 3.74-18.693 6-8.387 3.194-16.563 2.215-24.415-1.102-4.97-2.093-9.711-4.953-11.593-10.83-2.309-7.225 1.02-19.439 7.063-24.811 8.754-7.769 15.238-16.807 17.865-28.605 1.035-4.641-.096-7.835-2.728-11.074-1.058-1.291-2.31-2.415-3.462-3.629-9.822-10.367-20.068-20.368-29.34-31.221-8.069-9.449-14.342-20.157-17.664-32.423-2.972-10.997-6.494-21.852-9.994-33.489-3.813.612-7.781 1.055-11.665 1.934-6.501 1.469-12.9 3.306-19.378 4.814-3.346.776-6.189.019-7.569-4.09 1.425-1.049 2.767-2.588 4.436-3.175a412.332 412.332 0 0 1 20.392-6.525c4.146-1.219 8.42-2.001 13-3.061-1.642-7.504-3.089-14.127-4.703-21.507-8.447 3.698-17.018 5.142-23.758 10.983-1.775 1.544-3.879 3.094-6.082 3.634-1.358.332-3.54-.926-4.631-2.117-.484-.531.635-2.766 1.347-4.054.423-.757 1.414-1.289 2.26-1.698 5.96-2.963 11.942-5.863 17.92-8.765a1288.66 1288.66 0 0 1 10.886-5.195c.93-6.236-1.308-11.598-3.562-17.339-1.319.593-2.198.913-3.006 1.364-11.274 6.314-20.735 15.101-30.942 22.875-2.526 1.92-4.686 4.956-8.615 3.2 1.068-5.629 2.561-7.983 7.013-11.208 8.904-6.422 17.775-12.861 26.713-19.228 2.632-1.875 5.409-3.534 7.858-5.123-2.193-5.613-3.573-10.744-6.056-15.257-7.007-12.689-13.657-25.7-21.987-37.49-7.658-10.847-17.107-20.455-26.168-30.245-5.465-5.91-11.693-11.097-17.542-16.646-12.449-11.798-26.663-20.772-42.997-26.02-7.941-2.543-16.167-4.269-24.325-6.063-3.695-.821-7.558-1.205-11.337-1.244-4.674-.056-6.261-1.241-6.566-5.857-.54-8.178 1.18-16.014 4.357-23.398 3.373-7.867 7.519-15.399 11.197-23.138 2.115-4.419 3.963-8.954 6.145-13.91-1.804-.27-2.928-.554-4.052-.593-13.335-.429-25.667 3.247-36.48 10.708-10.179 7.015-19.667 15.037-29.334 22.773-5.815 4.649-11.353 9.625-8.337 18.766-7.224.718-13.635 1.851-20.324-.145-4.007-1.191-8.525-1.572-12.688-1.104-8.276.924-16.468 2.627-24.671 4.126-2.095.387-4.129 1.18-6.166 1.853-8.359 2.752-16.754 5.396-25.032 8.387-4.441 1.603-8.693 3.74-12.956 5.813-5.111 2.484-10.104 5.214-15.227 7.683-1.892.907-4.16 1.071-5.999 2.051-11.284 6.03-22.458 11.893-32.462 20.407-8.32 7.079-15.402 14.807-21.872 23.349-5.167 6.832-10.332 13.676-15.124 20.778-3.957 5.863-8.417 11.734-10.738 18.282-2.827 7.989-4.09 16.64-5.161 25.113-.549 4.274-1.011 7.552-5.04 10.196-5.955 3.92-11.54 8.451-16.941 13.125-8.264 7.163-16.15 14.601-22.461 23.825-4.124 6.03-7.129 12.344-9.767 18.966-1.247 3.142-1.681 6.475 1.681 9.864 2.646-1.386 5.301-2.785 7.961-4.166 6.765-3.481 13.309-7.521 20.363-10.256 6.029-2.321 12.296-5.421 19.659-3.125.503 2.872 1.222 5.648 1.419 8.465.417 5.721.309 11.48.857 17.185 1.138 11.857 1.355 23.766 2.449 35.631 1.311 14.348 3.278 28.36 6.795 42.251 1.11 4.38 1.828 8.899 3.351 13.14 1.855 5.188 4.466 5.904 9.369 3.467 5.105-2.537 10.056-5.56 15.396-7.412 5.584-1.926 11.553-2.794 17.394-3.918.904-.179 2.028.762 3.078 1.19-2.251 4.653-2.251 4.653-6.748 5.12-8.612.885-16.863 2.672-24.568 7.102-9.722 5.588-10.006 5.871-2.844 14.27 5.552 6.494 6.923 6.561 14.389 2.104 5.295-3.161 10.783-6.017 16.317-8.727 1.937-.946 4.285-1.041 6.531-1.547 1.338 4.597-1.191 6.211-3.682 7.558-4.627 2.481-9.483 4.552-14.083 7.101-10.755 5.949-9.391 7.736-3.316 14.731.314.362.57.773.871 1.13 3.495 4.129 6.007 4.658 10.526 2.009 1.636-.963 3.328-2.031 4.577-3.434 5.641-6.289 13.415-8.972 20.681-12.499 1.224-.59 2.785-.725 4.182-.686 2.947.072 4.519 2.132 3.306 4.781-.684 1.502-2.393 2.788-3.937 3.584-4.035 2.07-8.396 3.551-12.338 5.754-5.933 3.307-12.511 5.799-17.296 12.077 1.789 1.858 3.283 3.628 4.986 5.159 8.342 7.484 17.193 14.497 22.728 24.559 2.501 4.553 6.564 5.744 11.409 5.978 8.387.378 16.56 1.636 24.22 5.62 9.136 4.742 18.271 9.539 25.7 16.729 5.796 5.599 12.149 11.253 15.964 18.165 5.938 10.763 9.828 22.617 10.201 35.239.009.636.493 1.271 1.075 2.673z"/><path fill="#953C8E" d="M537.009 770.335c-.415-5.776-4.394-7.702-7.305-10.346-9.216-8.376-19.375-15.683-31.156-19.65-21.067-7.112-41.92-3.88-60.948 6.3-17.836 9.55-32.387 23.63-43.328 40.898-2.518 3.979-4.102 8.654-5.509 13.184-1.328 4.264.626 6.479 4.917 6.367 8.607-.2 17.21-.384 25.806-.724 4.639-.2 5.651-1.903 4.825-6.461-.571-3.101-.604-6.294-.969-10.391 3.834 1.736 5.248 3.629 5.404 6.517.501 9.4 3.439 18.099 6.798 26.863 4.449 11.632 11.703 20.637 21.894 27.393 1.903 1.269 4.561 1.402 7.368 2.203.27-2.993.64-4.869.576-6.733-.29-8.203.951-16.017 3.606-23.897 5.882-17.491 15.376-32.25 30.147-43.402 9.684-7.318 20.299-11.27 32.673-8.164 1.539.383 3.254.043 5.201.043z"/><path fill="#953C8E" d="M549.935 810.171c-.431-4.196-.832-11.364-2.006-18.398-.871-5.209-2.382-10.541-9.572-10.362-1.102.021-2.207-.868-3.333-1.225-9.695-3.061-18.891-1.859-27.434 3.545-14.414 9.121-25.669 20.881-32.147 37.076-4.121 10.312-4.16 20.93-4.188 31.627-.014 3.929 2.949 5.988 6.522 6.521 3.768.557 7.627.857 11.428.735 14.901-.479 28.533-5.46 41.383-12.634 13.175-7.367 20.231-18.476 19.347-36.885zM302.641 693.997c8.879 1.485 14.898-3.579 20.112-9.778 4.575-5.442 3.47-16.317-2.012-21.003-10.02-8.56-21.963-12.199-34.922-12.449-3.473-.067-7.129.94-10.412 2.198-5.677 2.159-6.781 4.774-5.329 10.662 2.371 9.572 7.477 17.498 14.879 23.942 5.006 4.363 10.543 7.491 17.684 6.428zM898.49 655.636c-1.052 2.549-1.441 3.417-1.775 4.308-3.595 9.729-8.036 18.844-17.018 24.949-1.736 1.163-3.105 2.988-4.353 4.725-4.669 6.506-2.415 14.041 5.075 16.891 11.287 4.302 22.295 4.413 32.891-2.276 4.597-2.911 5.187-3.149 3.384-8.57-2.549-7.658-5.398-15.249-8.677-22.623-2.487-5.584-5.848-10.77-9.527-17.404zM924.875 741.001c-7.83-.735-14.336-1.553-20.869-1.854-3.272-.155-6.673.323-9.873 1.08-3.629.856-5.454 3.355-5.348 7.368.228 8.871 2.821 16.283 11.191 20.747 2.304 1.235 4.586 2.627 6.589 4.296 6.011 4.998 12.75 5.51 20.436 4.041.802-12.471-.695-24.419-2.126-35.678zM385.583 532.402c-2.338 0-4.611-.229-6.814.033-12.386 1.478-23.013 7.274-33.453 13.604-4.207 2.546-8.685 4.644-10.88 10.535 3.078.885 5.688 1.842 8.39 2.382 12.6 2.499 25.656 2.337 37.972 6.6 1.605.556 3.515.234 6.027.356-.454-6.021-1.002-11.219-1.191-16.426-.199-5.408-.051-10.831-.051-17.084zM686.75 281.578c-1.079 1.286-2.265 2.393-3.1 3.72-2.493 4.035-4.68 8.256-7.296 12.219-6.188 9.391-8.437 20.076-10.429 30.854-.546 3.002.723 4.911 4.051 5.504 5.165.913 10.24 2.257 15.383 3.256 1.497.295 3.105.044 4.529.044 4.242-18.096 2.606-48.326-3.138-55.597z"/><path fill="#FFD656" d="M557.687 807.232c-.587-1.402-1.074-2.037-1.091-2.693-.37-12.622-4.263-24.477-10.201-35.239-3.813-6.912-10.165-12.555-15.961-18.165-7.433-7.189-16.568-11.987-25.7-16.729-7.661-3.984-15.833-5.242-24.22-5.621-4.845-.234-8.902-1.425-11.412-5.977-5.537-10.063-14.383-17.074-22.726-24.56-1.703-1.53-3.197-3.301-4.986-5.159 4.786-6.283 11.364-8.771 17.297-12.076 3.943-2.21 8.304-3.685 12.338-5.755 1.545-.796 3.253-2.081 3.938-3.584 1.213-2.649-.359-4.708-3.306-4.78-1.396-.039-2.963.094-4.182.685-7.268 3.528-15.04 6.216-20.68 12.499-1.25 1.392-2.941 2.471-4.578 3.434-4.519 2.654-7.026 2.121-10.527-2.009-.306-.356-.562-.769-.871-1.13-6.075-6.995-7.438-8.781 3.317-14.73 4.6-2.549 9.447-4.619 14.083-7.102 2.496-1.347 5.025-2.961 3.681-7.558-2.251.507-4.6.59-6.531 1.547-5.54 2.716-11.027 5.571-16.317 8.727-7.471 4.458-8.843 4.386-14.389-2.104-7.163-8.398-6.879-8.677 2.844-14.27 7.705-4.43 15.955-6.216 24.567-7.102 4.497-.467 4.497-.467 6.748-5.12-1.049-.428-2.173-1.369-3.078-1.19-5.835 1.113-11.804 1.992-17.394 3.918-5.346 1.853-10.298 4.869-15.399 7.413-4.895 2.438-7.505 1.719-9.366-3.468-1.522-4.235-2.24-8.759-3.353-13.14-3.515-13.896-5.482-27.903-6.792-42.251-1.088-11.864-1.305-23.774-2.449-35.631-.554-5.705-.439-11.465-.857-17.186-.198-2.816-.916-5.593-1.419-8.465-7.362-2.296-13.638.804-19.659 3.122-7.057 2.732-13.604 6.773-20.363 10.26-2.666 1.377-5.323 2.779-7.961 4.165-3.361-3.397-2.927-6.73-1.681-9.864 2.638-6.622 5.644-12.941 9.767-18.966 6.308-9.219 14.197-16.663 22.458-23.828 5.398-4.667 10.988-9.202 16.943-13.123 4.029-2.644 4.491-5.922 5.039-10.196 1.071-8.473 2.335-17.125 5.162-25.116 2.32-6.548 6.775-12.416 10.735-18.282 4.794-7.093 9.956-13.938 15.126-20.774 6.467-8.543 13.552-16.268 21.872-23.349 10-8.515 21.175-14.377 32.462-20.408 1.833-.985 4.107-1.146 6-2.051 5.117-2.468 10.109-5.198 15.226-7.683 4.263-2.067 8.515-4.205 12.953-5.813 8.276-2.986 16.676-5.629 25.035-8.39 2.034-.67 4.071-1.463 6.167-1.85 8.2-1.5 16.395-3.203 24.671-4.127 4.151-.468 8.67-.086 12.688 1.104 6.7 2.001 13.101.863 20.324.145-3.017-9.141 2.515-14.116 8.337-18.766 9.666-7.735 19.155-15.758 29.328-22.772 10.818-7.46 23.151-11.136 36.486-10.708 1.123.039 2.248.323 4.051.59-2.182 4.959-4.029 9.495-6.144 13.913-3.679 7.733-7.825 15.271-11.197 23.135-3.178 7.394-4.892 15.229-4.358 23.402.307 4.622 1.893 5.804 6.563 5.857 3.783.039 7.646.42 11.342 1.244 8.158 1.792 16.384 3.521 24.325 6.061 16.334 5.257 30.548 14.225 42.997 26.023 5.849 5.548 12.076 10.735 17.541 16.646 9.061 9.789 18.51 19.392 26.168 30.244 8.331 11.79 14.987 24.807 21.988 37.49 2.487 4.513 3.868 9.639 6.055 15.257-2.448 1.589-5.226 3.247-7.857 5.123-8.927 6.366-17.809 12.805-26.713 19.228-4.453 3.22-5.944 5.579-7.013 11.208 3.929 1.756 6.089-1.285 8.609-3.2 10.212-7.769 19.667-16.556 30.948-22.875.813-.451 1.681-.771 3-1.364 2.254 5.741 4.496 11.103 3.562 17.335-3.701 1.762-7.296 3.459-10.88 5.198a2211.913 2211.913 0 0 0-17.92 8.765c-.847.409-1.837.94-2.26 1.697-.713 1.289-1.837 3.523-1.347 4.051 1.091 1.194 3.272 2.452 4.624 2.121 2.21-.54 4.313-2.084 6.089-3.634 6.733-5.835 15.31-7.279 23.758-10.982 1.614 7.379 3.061 14.002 4.697 21.507-4.586 1.065-8.849 1.842-12.995 3.061a407.729 407.729 0 0 0-20.391 6.525c-1.67.587-3.011 2.126-4.436 3.175 1.38 4.107 4.224 4.867 7.568 4.09 6.489-1.511 12.889-3.345 19.378-4.814 3.88-.879 7.853-1.316 11.665-1.934 3.495 11.637 7.012 22.492 9.995 33.488 3.322 12.266 9.595 22.974 17.664 32.424 9.271 10.846 19.522 20.847 29.34 31.221 1.152 1.213 2.409 2.337 3.462 3.628 2.638 3.239 3.762 6.434 2.727 11.075-2.627 11.798-9.115 20.825-17.864 28.605-6.044 5.364-9.372 17.58-7.063 24.81 1.882 5.877 6.623 8.737 11.593 10.829 7.853 3.317 16.027 4.297 24.414 1.103 5.916-2.26 12.061-3.896 18.693-5.999 2.148 5.253 3.362 11.453 2.983 18.092-8.971.474-17.219.796-25.438 1.387-5.059.378-9.622 1.758-13.418 5.76-6.188 6.506-6.812 14.174-4.402 21.81 2.477 7.836 7.831 14.036 15.222 18.188 3.517 1.981 6.861 4.263 10.329 6.306 5.988 3.512 12.621 3.957 19.846 3.355v22.578c-122.923-.205-245.392 2.806-367.643-.962zm175.027-202.986c3.277.635 5.159.68 6.772 1.358 7.391 3.122 14.981 5.665 22.406 8.704 12.148 4.975 21.993 13.184 32.584 20.391 1.353.936 2.487 2.243 3.595 3.484 3.802 4.263 7.229 8.926 11.381 12.811 6.768 6.289 11.776 13.602 14.993 22.194.835 2.243 1.598 4.519 2.159 6.834.606 2.499 2.521 3.095 4.341 2.438 1.18-.417 2.654-2.326 2.594-3.495-.179-3.283-.513-6.767-1.804-9.733-6.566-15.076-16.64-27.687-28.505-38.912-2.426-2.287-5.487-3.89-7.853-6.216-7.463-7.347-16.606-11.999-25.983-16.111-6.924-3.027-14.226-5.148-21.382-7.652-8.304-2.905-16.518-6.166-25.684-4.965-1.72.223-3.601-.801-4.413-1.012-3.674-11.12-7.057-21.416-10.652-32.323.134-.117.901-1.113 1.926-1.542 8.576-3.634 14.837-10.098 21.221-16.601 9.388-9.544 16.479-20.186 18.487-33.661 1.436-9.662 3.5-19.492 1.308-29.095-1.881-8.256-5.009-16.342-8.432-24.134-8.119-18.474-20.986-33.411-36.246-46.389-3.083-2.61-5.776-5.863-9.205-7.841-7.635-4.394-15.398-8.757-23.541-12.058-10.507-4.246-21.693-6.188-32.979-3.942-24.565 4.866-43.477 18.755-58.374 38.327-13.296 17.45-20.061 37.248-18.5 59.337 1.055 14.932 6.362 28.666 14.225 41.271 6.852 10.98 15.193 20.257 27.03 26.821 13.468 7.475 26.624 14.592 42.463 14.982 4.485.106 8.933 1.113 13.412 1.591 4.163.439 6.355 2.761 7.174 6.768.506 2.549.629 5.532 2.059 7.479 2.767 3.796 3.445 8.259 5.171 12.366 1.18 2.777.762 4.775-1.682 6.89-3.923 3.395-7.802 6.99-11.052 11.019-8.916 11.053-8.96 24.265-8.287 37.51.462 8.844 4.058 16.451 9.483 23.391 8.375 10.725 18.17 19.479 31.204 24.126 1.726.623 4.04 1.263 4.797 2.604 2.305 4.107 4.52 8.414 5.788 12.911 2.46 8.704 4.336 17.581 6.267 26.424.856 3.884 3.395 5.754 6.923 6.21 4.019.523 8.114.847 12.154.68 16.245-.69 20.464-6.823 17.086-22.038-.852-3.862-1.48-7.78-2.383-12.566 12.945 4.386 21.672 11.81 26.502 23.552 2.359 5.727 4.658 11.481 6.745 17.308.868 2.433 1.87 4.263 4.858 4.603 2.978-6.327 4.207-12.227-.406-18.17-1.124-1.447-1.38-3.551-2.188-5.266-4.257-9.088-9.311-17.641-17.479-23.808-5.287-3.984-10.463-8.304-16.268-11.353-4.953-2.616-10.624-4.241-16.184-5.254-9.527-1.73-19.211-2.582-28.812-3.963-1.135-.155-2.125-1.291-3.689-2.293 30.133-20.135 43.155-46.976 34.875-83.991zm-162.878-.668c-2.452 5.978-4.149 12.461-12.658 13.102-2.346.178-5.413 1.124-4.232 4.263.637 1.726 3.242 2.994 5.226 3.84 1.094.479 2.757-.267 4.143-.585 7.177-1.641 10.372-7.273 12.726-13.373 1.402-3.65 3.172-4.574 7.007-3.817 3.923.773 8.125.979 12.098.489 13.213-1.652 20.959-17.886 14.158-29.361-3.072.534-3.05 2.949-3.494 5.342-.646 3.474-1.014 7.324-2.783 10.229-3.528 5.755-16.395 6.917-22.879 2.371 2.221-6.222 1.309-12.511-.935-18.644-2.755-7.558-9.055-9.817-16.017-5.677-3.484 2.06-6.807 4.43-10.054 6.845-4.577 3.406-4.394 10.92.432 14.147 5.441 3.623 11.079 6.962 17.262 10.829zm-105.383-6.577c.815 0 1.619.011 2.429.011.203-2.415.768-4.881.518-7.257-.353-3.295-1.414-6.534-2.006-9.812-2.148-12.021 8.696-23.207 20.586-20.708 7.505 1.58 14.492 4.786 19.534 11.074.89 1.107 1.778 2.304 2.902 3.116 2.17 1.575 4.547.924 4.928-1.636.32-2.159.342-5.176-.888-6.601-8.075-9.377-18.168-15.729-30.82-15.604-8.292.081-16.128 3.005-19.962 11.425-5.733 12.556-2.007 24.372 2.779 35.992z"/><path fill="#FFD656" d="M537.009 770.335c-1.953 0-3.67.34-5.195-.044-12.38-3.105-22.99.834-32.673 8.158-14.77 11.152-24.264 25.912-30.147 43.397-2.654 7.892-3.896 15.694-3.606 23.897.07 1.864-.306 3.739-.576 6.744-2.808-.801-5.465-.945-7.368-2.215-10.19-6.75-17.444-15.755-21.894-27.386-3.364-8.766-6.297-17.458-6.798-26.863-.155-2.895-1.569-4.786-5.403-6.522.358 4.107.397 7.296.968 10.396.832 4.563-.181 6.267-4.825 6.456-8.601.345-17.205.522-25.806.734-4.291.105-6.25-2.104-4.917-6.378 1.408-4.53 2.986-9.199 5.51-13.179 10.941-17.274 25.492-31.349 43.328-40.898 19.027-10.179 39.88-13.418 60.95-6.306 11.773 3.974 21.938 11.275 31.154 19.656 2.905 2.662 6.884 4.587 7.298 10.353zM265.532 713.18c.94-13.006-7.296-19.522-18.796-22.16-2.182-.501-4.353-1.074-7.168-1.77 4.491-9.584 9.923-17.324 16.083-24.565 1.019-1.202 2.741-1.892 4.249-2.549 5.106-2.248 5.477-1.425 7.118 3.718 1.923 6.011 4.925 11.737 7.956 17.319 4.138 7.636 11.331 12.065 18.538 16.351 1.778 1.057 3.534 2.126 5.513 3.306-1.13 1.809-1.801 3.071-2.633 4.202-9.608 13.039-12.75 27.274-8.949 43.213 3.136 13.156 8.401 25.267 15.833 36.441 4.166 6.283 8.782 12.271 13.624 19-1.959.545-3.417 1.269-4.883 1.302-7.168.146-14.336.223-21.496.111-11.698-.188-23.399-.778-35.097-.745-7.107.011-11.417-2.816-14.403-9.367-5.863-12.872-11.191-25.816-12.644-40.03-.12-1.19-.387-2.37-.423-3.562-.114-4.419.958-5.549 5.368-5.632 2.131-.045 4.508.679 6.366-.034 3.979-1.519 8.167-3.383 9.414-8.047 1.19-4.43 4.16-6.434 8.15-8.164 8.582-3.712 10.794-9.232 8.156-18.555l.124.217z"/><path fill="#A879B3" d="M549.935 810.171c.885 18.409-6.172 29.529-19.353 36.875-12.851 7.18-26.477 12.16-41.383 12.639-3.801.117-7.661-.178-11.429-.734-3.573-.54-6.53-2.588-6.522-6.517.028-10.697.072-21.315 4.188-31.633 6.478-16.195 17.728-27.96 32.148-37.076 8.542-5.398 17.739-6.611 27.434-3.545 1.127.351 2.231 1.252 3.333 1.219 7.19-.167 8.696 5.159 9.572 10.368 1.174 7.04 1.58 14.197 2.012 18.404zM302.641 693.997c-7.141 1.074-12.686-2.065-17.678-6.423-7.402-6.444-12.508-14.363-14.879-23.947-1.458-5.888-.354-8.492 5.329-10.651 3.284-1.263 6.94-2.265 10.413-2.204 12.953.251 24.901 3.885 34.922 12.444 5.481 4.686 6.581 15.561 2.012 21.009-5.216 6.193-11.24 11.257-20.119 9.772zM898.49 655.636c3.679 6.634 7.04 11.82 9.527 17.402 3.278 7.374 6.128 14.965 8.677 22.623 1.803 5.421 1.213 5.659-3.384 8.57-10.596 6.7-21.604 6.578-32.891 2.276-7.479-2.85-9.744-10.385-5.075-16.891 1.247-1.736 2.616-3.562 4.353-4.725 8.981-6.105 13.423-15.221 17.018-24.949.334-.889.723-1.757 1.775-4.306zM924.875 741.001c1.431 11.27 2.928 23.207 2.121 35.679-7.686 1.469-14.42.957-20.436-4.041-2.01-1.669-4.285-3.061-6.584-4.296-8.376-4.452-10.969-11.882-11.197-20.747-.111-4.013 1.725-6.512 5.354-7.368 3.2-.769 6.601-1.247 9.867-1.08 6.539.3 13.045 1.118 20.875 1.853zM385.583 532.402c0 6.252-.147 11.679.044 17.08.189 5.212.737 10.399 1.191 16.42-2.507-.117-4.416.211-6.027-.345-12.315-4.263-25.372-4.107-37.972-6.612-2.702-.534-5.312-1.491-8.389-2.37 2.195-5.891 6.672-7.989 10.88-10.541 10.44-6.325 21.067-12.126 33.45-13.604 2.211-.256 4.485-.028 6.823-.028zM686.75 281.578c5.744 7.271 7.38 37.504 3.139 55.597-1.424 0-3.032.25-4.529-.044-5.143-.999-10.218-2.343-15.383-3.256-3.328-.593-4.597-2.496-4.051-5.504 1.992-10.777 4.24-21.462 10.429-30.854 2.616-3.957 4.809-8.184 7.296-12.219.828-1.327 2.014-2.441 3.099-3.72zM265.396 712.969c-.724 1.992-1.119 4.186-2.224 5.949-4.561 7.291-12.577 8.314-18.869 2.604-.996-.907-2.034-1.765-3.372-2.922-2.391 2.839-2.652 5.254-.412 7.803.462.534 1.088.935 1.528 1.497 3.492 4.524 3.618 7.641.479 10.758-2.947 2.916-8.498 3.572-11.795.885-1.478-1.202-3.083-3.445-3.022-5.148.401-11.23 2.131-22.261 7.313-32.406.832-1.646 3.03-3.4 4.792-3.634 8.498-1.103 16.139.562 21.234 8.393 1.419 2.187 2.975 4.279 4.48 6.428.004.004-.132-.207-.132-.207z"/><path fill="#953C8E" d="M732.714 604.246c8.28 37.015-4.742 63.855-34.899 83.975 1.558 1.007 2.549 2.137 3.684 2.298 9.605 1.369 19.289 2.231 28.816 3.957 5.555 1.007 11.231 2.632 16.184 5.248 5.811 3.056 10.98 7.368 16.262 11.358 8.182 6.166 13.229 14.721 17.486 23.803.813 1.725 1.058 3.828 2.182 5.265 4.625 5.954 3.395 11.854.412 18.176-2.983-.334-3.985-2.171-4.864-4.608-2.076-5.82-4.38-11.575-6.739-17.302-4.836-11.737-13.563-19.167-26.496-23.546.891 4.774 1.524 8.692 2.382 12.565 3.372 15.216-.846 21.349-17.097 22.027-4.04.173-8.137-.155-12.154-.679-3.528-.457-6.055-2.315-6.912-6.199-1.937-8.85-3.813-17.721-6.271-26.43-1.275-4.497-3.484-8.805-5.783-12.906-.768-1.347-3.071-1.992-4.797-2.604-13.045-4.652-22.834-13.412-31.209-24.131-5.427-6.945-9.021-14.553-9.483-23.396-.674-13.24-.624-26.452 8.286-37.499 3.244-4.029 7.129-7.624 11.047-11.03 2.449-2.104 2.861-4.107 1.692-6.89-1.731-4.102-2.415-8.564-5.176-12.36-1.437-1.953-1.553-4.925-2.06-7.474-.813-4.007-3.005-6.328-7.174-6.773-4.474-.479-8.926-1.491-13.406-1.597-15.85-.39-29-7.502-42.463-14.982-11.842-6.559-20.18-15.835-27.035-26.816-7.869-12.605-13.179-26.34-14.226-41.271-1.558-22.089 5.198-41.887 18.499-59.337 14.893-19.573 33.814-33.458 58.368-38.327 11.292-2.246 22.479-.304 32.979 3.942 8.147 3.298 15.906 7.664 23.541 12.058 3.439 1.978 6.133 5.231 9.205 7.841 15.271 12.973 28.138 27.907 36.252 46.389 3.428 7.792 6.556 15.877 8.437 24.133 2.182 9.608.117 19.434-1.313 29.093-2.015 13.479-9.094 24.117-18.487 33.664-6.384 6.503-12.645 12.961-21.22 16.601-1.02.423-1.787 1.431-1.932 1.547 3.601 10.897 6.99 21.192 10.652 32.323.823.2 2.704 1.225 4.418 1.002 9.16-1.191 17.375 2.07 25.678 4.964 7.157 2.499 14.465 4.63 21.394 7.658 9.372 4.118 18.51 8.765 25.978 16.105 2.36 2.326 5.432 3.929 7.854 6.222 11.865 11.226 21.938 23.842 28.505 38.912 1.296 2.961 1.619 6.45 1.798 9.733.066 1.163-1.403 3.078-2.594 3.501-1.809.646-3.724.056-4.336-2.438-.562-2.326-1.33-4.603-2.159-6.834-3.211-8.604-8.23-15.906-14.992-22.2-4.157-3.879-7.58-8.548-11.381-12.812-1.113-1.246-2.237-2.554-3.596-3.478-10.585-7.213-20.435-15.416-32.59-20.392-7.413-3.038-15.015-5.587-22.395-8.709-1.593-.66-3.475-.705-6.752-1.34zm-84.408-209.388c-6.795 1.077-14.136.893-20.279 3.52-10.886 4.639-21.504 9.934-30.169 18.791-14.375 14.703-25.389 30.795-27.82 51.829-1.736 14.926.846 29.047 7.313 42.429 6.667 13.813 16.984 24.651 29.629 33.063 6.094 4.051 12.783 8.011 19.768 9.736 10.568 2.615 21.582 3.829 32.49 4.552 12.711.846 24.871-2.259 36.842-6.822 12.287-4.667 23.179-10.527 31.499-21.251 9.717-12.522 13.495-26.546 13.145-41.92-.233-10.493-4.964-19.646-9.144-29.104-8.515-19.233-20.385-35.328-37.576-47.728-13.76-9.938-28.391-16.453-45.698-17.095zm78.626 225.817c-.346-2.432-.874-6.655-1.553-10.852-.701-4.353-3.111-6.763-7.753-6.724-6.144.057-12.31.195-18.442-.178-15.605-.957-32.279 12.488-36.564 28.694-4.051 15.371-.4 28.684 8.961 40.871 3.383 4.419 8.242 7.157 13.689 6.355 5.521-.823 11.359-2.271 16.051-5.108 6.027-3.629 11.002-8.782 14.414-15.399 5.848-11.324 10.495-22.889 11.197-37.659zm-16.045 83.746c3.373 10.841 6.572 21.459 10.057 31.988.423 1.264 2.226 2.839 3.479 2.928 5.103.356 10.474 1.151 14.642-3.116-2.404-8.426-4.597-16.863-7.318-25.133-.718-2.182-2.743-4.814-4.77-5.516-4.809-1.664-9.896-3.388-16.09-1.151zM678.67 569.854c2.404 8.659 4.396 16.406 6.84 24.03.428 1.336 2.826 3.05 4.156 2.928 5.332-.523 10.586-1.703 16.668-2.782-3.517-9.25-6.895-18.121-10.445-27.437-5.51 1.034-10.563 1.997-17.219 3.261z"/><path fill="#953C8E" d="M569.836 603.578c-6.183-3.867-11.821-7.206-17.25-10.829-4.828-3.228-5.012-10.752-.434-14.147 3.242-2.415 6.564-4.785 10.053-6.845 6.962-4.141 13.263-1.881 16.023 5.677 2.237 6.133 3.15 12.433.93 18.644 6.483 4.546 19.35 3.384 22.879-2.371 1.775-2.905 2.137-6.756 2.782-10.229.445-2.393.423-4.808 3.495-5.342 6.789 11.486-.946 27.709-14.158 29.361-3.974.49-8.181.284-12.099-.489-3.84-.757-5.604.167-7.007 3.817-2.354 6.1-5.56 11.732-12.725 13.373-1.38.318-3.044 1.063-4.144.585-1.984-.841-4.589-2.114-5.226-3.84-1.18-3.139 1.887-4.085 4.232-4.263 8.505-.647 10.197-7.124 12.649-13.102zM464.453 597.001c-4.786-11.62-8.512-23.436-2.78-35.991 3.834-8.42 11.67-11.345 19.962-11.425 12.658-.12 22.745 6.233 30.82 15.604 1.229 1.425 1.208 4.441.888 6.601-.381 2.56-2.758 3.211-4.928 1.636-1.124-.813-2.012-2.009-2.902-3.116-5.042-6.289-12.024-9.494-19.534-11.074-11.89-2.499-22.734 8.682-20.586 20.708.593 3.277 1.653 6.517 2.006 9.812.25 2.376-.314 4.842-.518 7.257-.809-.001-1.619-.012-2.428-.012z"/><path fill="#AEDEF2" d="M648.306 394.858c17.308.643 31.938 7.157 45.702 17.091 17.196 12.399 29.062 28.494 37.576 47.727 4.185 9.458 8.904 18.616 9.149 29.104.351 15.374-3.435 29.398-13.151 41.92-8.319 10.725-19.217 16.579-31.493 21.251-11.977 4.563-24.131 7.674-36.853 6.817-10.896-.724-21.922-1.937-32.479-4.541-6.99-1.726-13.674-5.69-19.779-9.742-12.639-8.412-22.951-19.25-29.629-33.063-6.467-13.387-9.038-27.503-7.308-42.429 2.433-21.028 13.44-37.128 27.821-51.829 8.659-8.857 19.283-14.146 30.168-18.791 6.134-2.622 13.475-2.438 20.276-3.515zm49.77 85.122c-1.119-1.956-1.742-4.252-3.223-5.398-8.281-6.417-15.883-14.15-26.135-17.266-7.43-2.257-15.338-4.463-22.939-4.185-8.782.326-16.623 5.073-22.701 11.776-2.632 2.916-5.882 4.934-7.607 9.141-4.958 12.058-4.463 24.248-2.604 36.586.567 3.709 2.371 7.076 7.786 8.707-.373-6.222-.829-11.567-.974-16.924-.29-10.009.946-19.531 9.16-26.671 1.436-1.25 2.722-2.702 3.907-4.193 3.856-4.867 9.254-6.89 15.059-7.118 4.937-.189 10.112.211 14.865 1.497 9.995 2.707 19.083 7.58 26.919 14.397 2.732 2.387 4.797 2.604 8.487-.349z"/><path fill="#A879B3" d="M726.932 620.675c-.701 14.781-5.349 26.335-11.197 37.654-3.417 6.617-8.393 11.776-14.414 15.399-4.691 2.832-10.541 4.291-16.051 5.104-5.447.801-10.307-1.932-13.689-6.355-9.367-12.177-13.012-25.494-8.961-40.871 4.285-16.201 20.959-29.641 36.564-28.684 6.133.367 12.299.223 18.442.178 4.642-.044 7.052 2.36 7.753 6.712.679 4.208 1.213 8.431 1.553 10.863z"/><path fill="#E83B3B" d="M710.887 704.421c6.194-2.237 11.281-.513 16.089 1.151 2.021.701 4.052 3.334 4.77 5.516 2.732 8.27 4.914 16.718 7.318 25.133-4.168 4.268-9.539 3.473-14.642 3.116-1.253-.089-3.056-1.664-3.479-2.928-3.484-10.529-6.683-21.147-10.056-31.988zM678.67 569.854a31836.07 31836.07 0 0 0 17.213-3.272c3.551 9.327 6.929 18.192 10.446 27.442-6.077 1.074-11.337 2.254-16.674 2.782-1.319.128-3.718-1.586-4.151-2.933-2.438-7.613-4.43-15.371-6.834-24.019z"/><path fill="#953C8E" d="M698.076 479.98c-3.69 2.953-5.755 2.73-8.493.354-7.836-6.817-16.924-11.695-26.919-14.397-4.753-1.285-9.928-1.686-14.87-1.497-5.799.229-11.197 2.251-15.054 7.118-1.186 1.497-2.477 2.95-3.901 4.193-8.22 7.141-9.461 16.662-9.166 26.671.15 5.351.596 10.702.974 16.924-5.415-1.63-7.224-4.998-7.785-8.707-1.854-12.338-2.354-24.529 2.604-36.586 1.73-4.207 4.975-6.23 7.607-9.141 6.077-6.709 13.919-11.456 22.7-11.773 7.603-.281 15.516 1.931 22.935 4.182 10.263 3.117 17.854 10.85 26.146 17.266 1.48 1.142 2.103 3.437 3.222 5.393z"/></svg>