<svg aria-hidden="true" style="width:0;height:0;position:absolute;overflow:hidden" xmlns="http://www.w3.org/2000/svg"><defs><symbol id="icon-close" viewBox="0 0 32 32"><path fill="#4c00fe" style="fill:var(--color1,#4c00fe)" d="M1.646 32a1.646 1.646 0 0 1-1.163-2.811L29.19.482a1.646 1.646 0 1 1 2.328 2.329L2.811 31.517A1.65 1.65 0 0 1 1.646 32z"/><path fill="#4c00fe" style="fill:var(--color1,#4c00fe)" d="M30.355 32a1.63 1.63 0 0 1-1.163-.483L.483 2.811A1.647 1.647 0 0 1 2.812.482l28.707 28.707A1.646 1.646 0 0 1 30.356 32z"/></symbol><symbol id="icon-geolocation" viewBox="0 0 26 32"><path fill="#fff" style="fill:var(--color2,#fff)" d="M12.075 0C5.417 0 0 4.99 0 11.123 0 18.832 12.087 32 12.087 32S24.15 18.453 24.15 11.123C24.15 4.99 18.733 0 12.075 0zm3.643 14.38c-1.005.925-2.324 1.388-3.643 1.388s-2.639-.463-3.643-1.388c-2.009-1.85-2.009-4.861 0-6.712.973-.896 2.267-1.39 3.643-1.39s2.67.494 3.643 1.39c2.009 1.851 2.009 4.862 0 6.712z"/></symbol><symbol id="icon-logo" viewBox="0 0 38 32"><path style="fill:var(--color3,#000)" opacity=".03" d="M0 32c4.986 0 9.923-.828 14.53-2.436s8.792-3.965 12.318-6.937c3.526-2.972 6.322-6.499 8.23-10.382s2.89-8.044 2.89-12.246H-.001v32z"/><path fill="#fff" style="fill:var(--color2,#fff)" d="M9.686 15.594c-.212-.606-.647-.909-1.307-.909h-.208v3.739h.208c.51 0 .886-.207 1.129-.621.204-.353.307-.803.307-1.349a2.654 2.654 0 0 0-.129-.86zM6.115 15.638c.212.606.647.909 1.306.909h.208v-3.739h-.208c-.51 0-.886.207-1.129.621-.204.353-.306.803-.306 1.349 0 .324.043.611.128.86zM2.653 6.838h2.769v.99H3.647v.495h1.474v.94H3.647v.501h1.775v.99H2.653V6.838zM6.814 6.833h3.582l-1.791 4-1.791-4zm1.791 3.505 1.48-3.297H7.131l1.474 3.297zM11.827 6.838h2.769v.99h-1.775v.495h1.474v.94h-1.474v.501h1.775v.99h-2.769V6.838zM16.299 10.748V6.833h.213l2.654 2.661V6.833h.202v3.916l-3.069-.001zM22.267 10.754V7.828h-1.436v-.99H23.9v.99h-1.436v2.926h-.196zM4.285 13.589c.24 0 .431.037.573.113.163.082.3.21.395.37s.143.344.14.53a.958.958 0 0 1-.142.509 1.015 1.015 0 0 1-.388.368c.197.072.37.201.497.371.132.169.203.38.202.596a1.068 1.068 0 0 1-.53.922.955.955 0 0 1-.268.101 1.792 1.792 0 0 1-.393.034H2.689v-3.916h1.595zM10.688 17.221c-.286-.257-.427-.642-.423-1.156h.89c-.004.214.058.377.186.489s.306.169.535.169c.189 0 .339-.032.448-.096s.164-.161.164-.293c0-.109-.056-.188-.167-.236a1.543 1.543 0 0 0-.33-.104l-.202-.038a4.287 4.287 0 0 1-.726-.206c-.198-.076-.374-.202-.513-.366s-.207-.383-.207-.653.069-.5.207-.689c.138-.189.323-.331.554-.425a2 2 0 0 1 .756-.141c.331 0 .618.064.86.191s.432.321.571.579c.064.109.107.231.126.357.014.111.022.223.022.335h-.89c0-.203-.053-.352-.158-.447s-.269-.143-.491-.143c-.178 0-.317.032-.415.096s-.147.15-.147.259c0 .12.066.208.197.264.161.066.327.116.497.152.328.068.583.132.767.194.185.063.351.177.478.329.135.158.202.379.202.664 0 .27-.073.503-.218.698s-.338.344-.576.447a1.941 1.941 0 0 1-.773.155c-.528-.001-.935-.129-1.22-.386zM15.715 17.505V14.58h-1.436v-.99h3.069v.99h-1.436v2.925h-.197zM18.379 13.589h2.769v.99h-1.775v.495h1.474v.94h-1.474v.501h1.775v.99h-2.769v-3.916zM25.249 17.505h-2.921v-3.916h1.48c.317 0 .575.058.775.174.191.107.35.267.459.461.11.197.166.42.164.647.003.285-.09.562-.262.785a1.235 1.235 0 0 1-.661.459l.967 1.39zm-2.72-3.573v2.02h1.404l-1.404-2.02zm0 3.365h2.337l-.797-1.142-.169.006h-1.371v1.136zm.142-3.5 1.485 2.138c.238-.049.453-.182.606-.377.157-.192.243-.435.24-.686a1.106 1.106 0 0 0-.147-.563.976.976 0 0 0-.415-.388c-.16-.083-.37-.124-.628-.124h-1.141z"/></symbol></defs></svg>