<svg aria-hidden="true" style="position: absolute; width: 0; height: 0; overflow: hidden;" version="1.1"
    xmlns="http://www.w3.org/2000/svg" xmlns:xlink="http://www.w3.org/1999/xlink">
    <defs>
        <symbol id="icon-close" viewBox="0 0 32 32">
            <path style="fill: var(--color1)"
                d="M1.646 32c-0.422 0-0.843-0.16-1.163-0.483-0.643-0.643-0.643-1.685 0-2.328l28.707-28.707c0.643-0.643 1.685-0.643 2.328 0s0.643 1.685 0 2.329l-28.707 28.706c-0.323 0.321-0.744 0.483-1.165 0.483z">
            </path>
            <path style="fill: var(--color1)"
                d="M30.355 32c-0.422 0-0.843-0.16-1.163-0.483l-28.709-28.706c-0.643-0.643-0.643-1.686 0-2.329s1.685-0.643 2.329 0l28.707 28.707c0.643 0.643 0.643 1.685 0 2.328-0.323 0.321-0.744 0.483-1.163 0.483z">
            </path>
        </symbol>
        <symbol id="up-arrow" viewBox="0 0 32 32">
            <path
                d="M16 0c-8.873 0-16 7.127-16 16s7.127 16 16 16 16-7.127 16-16-7.127-16-16-16zM16 25.455c-5.236 0-9.455-4.218-9.455-9.455s4.218-9.455 9.455-9.455 9.455 4.218 9.455 9.455-4.218 9.455-9.455 9.455z">
            </path>
            <path
                d="M16 9.455c-3.636 0-6.545 2.909-6.545 6.545s2.909 6.545 6.545 6.545 6.545-2.909 6.545-6.545-2.909-6.545-6.545-6.545zM20 18.109l-1.236 0.727c-0.073 0.073-0.218 0.073-0.364 0.073-0.218 0-0.364-0.073-0.509-0.218l-1.309-1.527c-0.291-0.364-0.8-0.364-1.091 0l-1.309 1.527c-0.145 0.145-0.291 0.218-0.509 0.218-0.145 0-0.291 0-0.364-0.073l-1.236-0.727c-0.218-0.145-0.364-0.364-0.364-0.655 0-0.145 0-0.218 0.073-0.364l0.073-0.073 3.636-4.364c0.145-0.145 0.364-0.291 0.582-0.291s0.436 0.073 0.582 0.291l3.636 4.364 0.073 0.073c0.073 0.145 0.073 0.218 0.073 0.364-0.073 0.218-0.218 0.509-0.436 0.655z">
            </path>
        </symbol>
        <symbol id="icon-geolocation" viewBox="0 0 26 32">
            <path fill="#fff" style="fill: var(--color2, #fff)"
                d="M12.075 0c-6.658 0-12.075 4.99-12.075 11.123 0 7.709 12.087 20.877 12.087 20.877s12.063-13.547 12.063-20.877c0-6.133-5.417-11.123-12.075-11.123zM15.718 14.38c-1.005 0.925-2.324 1.388-3.643 1.388s-2.639-0.463-3.643-1.388c-2.009-1.85-2.009-4.861 0-6.712 0.973-0.896 2.267-1.39 3.643-1.39s2.67 0.494 3.643 1.39c2.009 1.851 2.009 4.862 0 6.712z">
            </path>
        </symbol>
        <symbol id="icon-logo" width="137" height="71" fill="none">
            <path
                d="M42.42 53.048c-1.277-3.655-3.903-5.483-7.88-5.484h-1.255v22.55h1.255c3.074 0 5.342-1.25 6.806-3.746 1.233-2.13 1.85-4.842 1.85-8.135-.003-1.958-.262-3.686-.776-5.184ZM20.884 53.319c1.278 3.655 3.904 5.483 7.879 5.483h1.255V36.253h-1.255c-3.074 0-5.343 1.248-6.807 3.745-1.23 2.13-1.844 4.842-1.845 8.135 0 1.956.258 3.684.773 5.186ZM0 .24h16.698v5.973H5.994v2.986h8.892v5.666H5.994v3.02h10.704v5.972H0V.24ZM25.095.212H46.7L35.898 24.338 25.095.212Zm10.803 21.14 8.925-19.884H27.005l8.893 19.884ZM55.329.24h16.698v5.973H61.323v2.986h8.892v5.666h-8.892v3.02h10.704v5.972H55.329V.24ZM82.302 23.823V.213h1.285l16.006 16.05V.212h1.218v23.616l-18.509-.006ZM118.3 23.857V6.213h-8.662V.24h18.509v5.973h-8.662v17.644H118.3ZM9.846 40.96c1.45 0 2.602.226 3.458.678a5.815 5.815 0 0 1 2.382 2.23 6.06 6.06 0 0 1 .846 3.2 5.8 5.8 0 0 1-.856 3.07 6.156 6.156 0 0 1-2.339 2.223 6.521 6.521 0 0 1 2.997 2.24 5.78 5.78 0 0 1 1.219 3.596 6.261 6.261 0 0 1-.873 3.24 6.444 6.444 0 0 1-2.322 2.325c-.507.28-1.05.487-1.614.61-.592.137-1.383.204-2.37.204H.228V40.96h9.617ZM48.462 62.863c-1.724-1.55-2.574-3.874-2.552-6.973h5.368c-.022 1.29.351 2.273 1.12 2.952.768.679 1.844 1.018 3.227 1.018 1.142 0 2.042-.192 2.701-.577.659-.385.988-.973.988-1.764 0-.657-.335-1.131-1.005-1.426a9.199 9.199 0 0 0-1.992-.627c-.659-.125-1.065-.2-1.219-.227a25.802 25.802 0 0 1-4.38-1.244 7.635 7.635 0 0 1-3.096-2.205c-.834-.996-1.251-2.308-1.251-3.937 0-1.628.417-3.014 1.251-4.156.835-1.143 1.949-1.997 3.343-2.562a12.023 12.023 0 0 1 4.562-.849c1.998 0 3.727.385 5.187 1.154 1.46.77 2.607 1.934 3.441 3.495.388.66.645 1.392.758 2.155.086.67.13 1.344.132 2.019h-5.369c0-1.222-.318-2.12-.955-2.698-.636-.577-1.625-.865-2.964-.865-1.076 0-1.91.192-2.503.577-.593.385-.89.905-.89 1.56 0 .725.396 1.256 1.187 1.596a17.41 17.41 0 0 0 2.996.916c1.977.407 3.519.797 4.628 1.17a6.47 6.47 0 0 1 2.882 1.985c.812.95 1.218 2.285 1.218 4.005 0 1.628-.439 3.03-1.317 4.207-.878 1.177-2.037 2.076-3.475 2.698a11.61 11.61 0 0 1-4.66.933c-3.184-.004-5.637-.78-7.36-2.33ZM78.778 64.576V46.932h-8.662v-5.973h18.51v5.973h-8.662v17.644h-1.186ZM94.85 40.96h16.698v5.972h-10.704v2.986h8.893v5.666h-8.893v3.02h10.704v5.972H94.85V40.96ZM136.281 64.576h-17.62V40.96h8.925c1.91 0 3.469.35 4.677 1.051a7.214 7.214 0 0 1 2.766 2.783 7.838 7.838 0 0 1 .988 3.902 7.63 7.63 0 0 1-1.581 4.734 7.435 7.435 0 0 1-3.985 2.765l5.83 8.381ZM119.879 43.03v12.182h8.465l-8.465-12.182Zm0 20.292h14.096l-4.808-6.888-1.021.034h-8.267v6.854Zm.857-21.106 8.958 12.894a6.274 6.274 0 0 0 3.656-2.273 6.416 6.416 0 0 0 1.449-4.14 6.628 6.628 0 0 0-.889-3.393 5.915 5.915 0 0 0-2.503-2.341c-.967-.498-2.229-.747-3.788-.747h-6.883Z"
                fill="#fff" />
            </path>
        </symbol>
        <symbol id="icon-ticket1" viewBox="0 0 44 32">
            <path d="M4.91 1.27h-4.91v29.46h4.91v-29.46z"></path>
            <path d="M17.26 1.27h-4.91v29.46h4.91v-29.46z"></path>
            <path d="M24.699 1.27h-4.91v29.46h4.91v-29.46z"></path>
            <path d="M44.19 1.27h-7.291v29.46h7.291v-29.46z"></path>
            <path d="M9.82 1.27h-2.381v29.46h2.381v-29.46z"></path>
            <path d="M29.46 1.27h-2.381v29.46h2.381v-29.46z"></path>
            <path d="M34.37 1.27h-2.381v29.46h2.381v-29.46z"></path>
        </symbol>
    </defs>
</svg>