<svg aria-hidden="true" style="position: absolute; width: 0; height: 0; overflow: hidden;" version="1.1"
    xmlns="http://www.w3.org/2000/svg" xmlns:xlink="http://www.w3.org/1999/xlink">
    <defs>
        <symbol id="icon-close" viewBox="0 0 32 32">
            <path  style="fill: var(--color1)"
                d="M1.646 32c-0.422 0-0.843-0.16-1.163-0.483-0.643-0.643-0.643-1.685 0-2.328l28.707-28.707c0.643-0.643 1.685-0.643 2.328 0s0.643 1.685 0 2.329l-28.707 28.706c-0.323 0.321-0.744 0.483-1.165 0.483z">
            </path>
            <path  style="fill: var(--color1)"
                d="M30.355 32c-0.422 0-0.843-0.16-1.163-0.483l-28.709-28.706c-0.643-0.643-0.643-1.686 0-2.329s1.685-0.643 2.329 0l28.707 28.707c0.643 0.643 0.643 1.685 0 2.328-0.323 0.321-0.744 0.483-1.163 0.483z">
            </path>
        </symbol>
        <symbol id="up-arrow" viewBox="0 0 32 32">
        <path d="M16 0c-8.873 0-16 7.127-16 16s7.127 16 16 16 16-7.127 16-16-7.127-16-16-16zM16 25.455c-5.236 0-9.455-4.218-9.455-9.455s4.218-9.455 9.455-9.455 9.455 4.218 9.455 9.455-4.218 9.455-9.455 9.455z"></path>
        <path d="M16 9.455c-3.636 0-6.545 2.909-6.545 6.545s2.909 6.545 6.545 6.545 6.545-2.909 6.545-6.545-2.909-6.545-6.545-6.545zM20 18.109l-1.236 0.727c-0.073 0.073-0.218 0.073-0.364 0.073-0.218 0-0.364-0.073-0.509-0.218l-1.309-1.527c-0.291-0.364-0.8-0.364-1.091 0l-1.309 1.527c-0.145 0.145-0.291 0.218-0.509 0.218-0.145 0-0.291 0-0.364-0.073l-1.236-0.727c-0.218-0.145-0.364-0.364-0.364-0.655 0-0.145 0-0.218 0.073-0.364l0.073-0.073 3.636-4.364c0.145-0.145 0.364-0.291 0.582-0.291s0.436 0.073 0.582 0.291l3.636 4.364 0.073 0.073c0.073 0.145 0.073 0.218 0.073 0.364-0.073 0.218-0.218 0.509-0.436 0.655z"></path>
        </symbol>
        <symbol id="icon-geolocation" viewBox="0 0 26 32">
            <path fill="#fff" style="fill: var(--color2, #fff)"
                d="M12.075 0c-6.658 0-12.075 4.99-12.075 11.123 0 7.709 12.087 20.877 12.087 20.877s12.063-13.547 12.063-20.877c0-6.133-5.417-11.123-12.075-11.123zM15.718 14.38c-1.005 0.925-2.324 1.388-3.643 1.388s-2.639-0.463-3.643-1.388c-2.009-1.85-2.009-4.861 0-6.712 0.973-0.896 2.267-1.39 3.643-1.39s2.67 0.494 3.643 1.39c2.009 1.851 2.009 4.862 0 6.712z">
            </path>
        </symbol>
        <symbol id="icon-logo" viewBox="0 0 38 150">
            <path fill="#000" style="fill: var(--color3, #000)" opacity="0.03"
                d="M0 32c4.986 0 9.923-0.828 14.53-2.436s8.792-3.965 12.318-6.937c3.526-2.972 6.322-6.499 8.23-10.382s2.89-8.044 2.89-12.246h-37.969v32z">
            </path>
            <path fill="#fff" style="fill: var(--color2, #fff)"
                d="M9.686 15.594c-0.212-0.606-0.647-0.909-1.307-0.909h-0.208v3.739h0.208c0.51 0 0.886-0.207 1.129-0.621 0.204-0.353 0.307-0.803 0.307-1.349-0.001-0.325-0.043-0.611-0.129-0.86z">
            </path>
            <path fill="#fff" style="fill: var(--color2, #fff)"
                d="M6.115 15.638c0.212 0.606 0.647 0.909 1.306 0.909h0.208v-3.739h-0.208c-0.51 0-0.886 0.207-1.129 0.621-0.204 0.353-0.306 0.803-0.306 1.349 0 0.324 0.043 0.611 0.128 0.86z">
            </path>
            <path fill="#fff" style="fill: var(--color2, #fff)"
                d="M2.653 6.838h2.769v0.99h-1.775v0.495h1.474v0.94h-1.474v0.501h1.775v0.99h-2.769v-3.916z"></path>
            <path fill="#fff" style="fill: var(--color2, #fff)"
                d="M6.814 6.833h3.582l-1.791 4-1.791-4zM8.605 10.338l1.48-3.297h-2.954l1.474 3.297z"></path>
            <path fill="#fff" style="fill: var(--color2, #fff)"
                d="M11.827 6.838h2.769v0.99h-1.775v0.495h1.474v0.94h-1.474v0.501h1.775v0.99h-2.769v-3.916z"></path>
            <path fill="#fff" style="fill: var(--color2, #fff)"
                d="M16.299 10.748v-3.915h0.213l2.654 2.661v-2.661h0.202v3.916l-3.069-0.001z"></path>
            <path fill="#fff" style="fill: var(--color2, #fff)"
                d="M22.267 10.754v-2.926h-1.436v-0.99h3.069v0.99h-1.436v2.926h-0.196z"></path>
            <path fill="#fff" style="fill: var(--color2, #fff)"
                d="M4.285 13.589c0.24 0 0.431 0.037 0.573 0.113 0.163 0.082 0.3 0.21 0.395 0.37s0.143 0.344 0.14 0.53c0.001 0.18-0.048 0.357-0.142 0.509-0.095 0.156-0.229 0.283-0.388 0.368 0.197 0.072 0.37 0.201 0.497 0.371 0.132 0.169 0.203 0.38 0.202 0.596 0.001 0.189-0.049 0.376-0.145 0.537-0.094 0.16-0.226 0.293-0.385 0.385-0.084 0.047-0.174 0.081-0.268 0.101-0.098 0.023-0.229 0.034-0.393 0.034h-1.682v-3.916h1.595z">
            </path>
            <path fill="#fff" style="fill: var(--color2, #fff)"
                d="M10.688 17.221c-0.286-0.257-0.427-0.642-0.423-1.156h0.89c-0.004 0.214 0.058 0.377 0.186 0.489s0.306 0.169 0.535 0.169c0.189 0 0.339-0.032 0.448-0.096s0.164-0.161 0.164-0.293c0-0.109-0.056-0.188-0.167-0.236-0.106-0.047-0.217-0.082-0.33-0.104-0.109-0.021-0.177-0.033-0.202-0.038-0.247-0.047-0.49-0.116-0.726-0.206-0.198-0.076-0.374-0.202-0.513-0.366s-0.207-0.383-0.207-0.653 0.069-0.5 0.207-0.689c0.138-0.189 0.323-0.331 0.554-0.425 0.241-0.096 0.498-0.143 0.756-0.141 0.331 0 0.618 0.064 0.86 0.191s0.432 0.321 0.571 0.579c0.064 0.109 0.107 0.231 0.126 0.357 0.014 0.111 0.022 0.223 0.022 0.335h-0.89c0-0.203-0.053-0.352-0.158-0.447s-0.269-0.143-0.491-0.143c-0.178 0-0.317 0.032-0.415 0.096s-0.147 0.15-0.147 0.259c0 0.12 0.066 0.208 0.197 0.264 0.161 0.066 0.327 0.116 0.497 0.152 0.328 0.068 0.583 0.132 0.767 0.194 0.185 0.063 0.351 0.177 0.478 0.329 0.135 0.158 0.202 0.379 0.202 0.664 0 0.27-0.073 0.503-0.218 0.698s-0.338 0.344-0.576 0.447c-0.245 0.104-0.508 0.157-0.773 0.155-0.528-0.001-0.935-0.129-1.22-0.386z">
            </path>
            <path fill="#fff" style="fill: var(--color2, #fff)"
                d="M15.715 17.505v-2.925h-1.436v-0.99h3.069v0.99h-1.436v2.925h-0.197z"></path>
            <path fill="#fff" style="fill: var(--color2, #fff)"
                d="M18.379 13.589h2.769v0.99h-1.775v0.495h1.474v0.94h-1.474v0.501h1.775v0.99h-2.769v-3.916z"></path>
            <path fill="#fff" style="fill: var(--color2, #fff)"
                d="M25.249 17.505h-2.921v-3.916h1.48c0.317 0 0.575 0.058 0.775 0.174 0.191 0.107 0.35 0.267 0.459 0.461 0.11 0.197 0.166 0.42 0.164 0.647 0.003 0.285-0.090 0.562-0.262 0.785-0.165 0.224-0.397 0.385-0.661 0.459l0.967 1.39zM22.529 13.932v2.020h1.404l-1.404-2.020zM22.529 17.297h2.337l-0.797-1.142-0.169 0.006h-1.371v1.136zM22.671 13.797l1.485 2.138c0.238-0.049 0.453-0.182 0.606-0.377 0.157-0.192 0.243-0.435 0.24-0.686 0.002-0.198-0.049-0.393-0.147-0.563-0.098-0.169-0.243-0.304-0.415-0.388-0.16-0.083-0.37-0.124-0.628-0.124h-1.141z">
            </path>
        </symbol>
    </defs>
</svg>